<?xml version="1.0" encoding="UTF-8"?>
<svg width="30px" height="30px" viewBox="0 0 30 30" version="1.1" xmlns="http://www.w3.org/2000/svg" xmlns:xlink="http://www.w3.org/1999/xlink">
    <!-- Generator: Sketch 51.1 (57501) - http://www.bohemiancoding.com/sketch -->
    <title>Logo</title>
    <desc>Created with Sketch.</desc>
    <defs></defs>
    <g id="Page-1" stroke="none" stroke-width="1" fill="none" fill-rule="evenodd">
        <g id="Artboard">
            <g id="Logo">
                <path d="M5.1277704,-2.07168062e-16 L24.8722296,2.07168062e-16 C26.6552671,-1.2037061e-16 27.3018396,0.185651222 27.9536914,0.534265408 C28.6055433,0.882879593 29.1171204,1.39445674 29.4657346,2.04630859 C29.8143488,2.69816044 30,3.34473292 30,5.1277704 L30,24.8722296 C30,26.6552671 29.8143488,27.3018396 29.4657346,27.9536914 C29.1171204,28.6055433 28.6055433,29.1171204 27.9536914,29.4657346 C27.3018396,29.8143488 26.6552671,30 24.8722296,30 L5.1277704,30 C3.34473292,30 2.69816044,29.8143488 2.04630859,29.4657346 C1.39445674,29.1171204 0.882879593,28.6055433 0.534265408,27.9536914 C0.185651222,27.3018396 8.02470732e-17,26.6552671 -1.38112041e-16,24.8722296 L1.38112041e-16,5.1277704 C-8.02470732e-17,3.34473292 0.185651222,2.69816044 0.534265408,2.04630859 C0.882879593,1.39445674 1.39445674,0.882879593 2.04630859,0.534265408 C2.69816044,0.185651222 3.34473292,1.2037061e-16 5.1277704,-2.07168062e-16 Z M10.1277704,5 C8.34473292,5 7.69816044,5.18565122 7.04630859,5.53426541 C6.39445674,5.88287959 5.88287959,6.39445674 5.53426541,7.04630859 C5.18565122,7.69816044 5,8.34473292 5,10.1277704 L5,19.8722296 C5,21.6552671 5.18565122,22.3018396 5.53426541,22.9536914 C5.88287959,23.6055433 6.39445674,24.1171204 7.04630859,24.4657346 C7.69816044,24.8143488 8.34473292,25 10.1277704,25 L19.8722296,25 C21.6552671,25 22.3018396,24.8143488 22.9536914,24.4657346 C23.6055433,24.1171204 24.1171204,23.6055433 24.4657346,22.9536914 C24.8143488,22.3018396 25,21.6552671 25,19.8722296 L25,10.1277704 C25,8.34473292 24.8143488,7.69816044 24.4657346,7.04630859 C24.1171204,6.39445674 23.6055433,5.88287959 22.9536914,5.53426541 C22.3018396,5.18565122 21.6552671,5 19.8722296,5 L10.1277704,5 Z" id="Combined-Shape" fill="#195AF7"></path>
                <rect id="Rectangle" fill="#F81D41" x="10" y="10" width="10" height="10" rx="4"></rect>
            </g>
        </g>
    </g>
</svg>