<?xml version="1.0" encoding="UTF-8"?>
<svg width="686px" height="732px" viewBox="0 0 686 732" version="1.1" xmlns="http://www.w3.org/2000/svg" xmlns:xlink="http://www.w3.org/1999/xlink">
    <!-- Generator: Sketch 52.4 (67378) - http://www.bohemiancoding.com/sketch -->
    <title>illustration</title>
    <desc>Created with Sketch.</desc>
    <defs>
        <linearGradient x1="19.1659856%" y1="7.73507583%" x2="40.543739%" y2="107.621269%" id="linearGradient-1">
            <stop stop-color="#FFFFFF" offset="0%"></stop>
            <stop stop-color="#8FF3E1" offset="45.095737%"></stop>
            <stop stop-color="#4C5AF0" offset="100%"></stop>
        </linearGradient>
        <path d="M566.954889,0.796109823 C661.784341,-16.5037207 814.016902,254.241955 1072.03709,220.22119 C1633.42359,146.200631 1441.89937,341.42198 1676.31326,391.566417 C2056.28396,472.847509 1798.26056,629.72148 1690.65874,723.696545 C1583.05691,817.67161 1636.1331,983.323736 1361.50183,824.391616 C1086.87056,665.459496 859.228079,927.035999 662.389506,893.525545 C121.84919,801.502163 388.894814,522.848563 99.9053283,416.405343 C-188.412867,310.209378 203.103236,67.1739263 566.954889,0.796109823 Z" id="path-2"></path>
        <linearGradient x1="51.6074582%" y1="75.6643106%" x2="54.7976017%" y2="14.5442501%" id="linearGradient-4">
            <stop stop-color="#A0F5F1" offset="0%"></stop>
            <stop stop-color="#6491EA" offset="100%"></stop>
        </linearGradient>
        <path d="M39.0812853,56.0884344 C41.4819656,55.036955 42.3973897,50.0932085 45.9749538,41.3077871 C49.4185096,32.8514495 48.6195562,30.2381905 48.0271259,27.0779173 C47.137496,22.3322553 50.3411086,17.8743596 45.6582851,11.7494272 C41.6041718,6.44682073 36.4549948,4.41921598 29.5159246,4.43327199 C18.5985462,4.4553866 13.7724847,9.24652462 10.8997541,30.0870072 C8.02702346,50.9274898 35.1047577,57.8301227 39.0812853,56.0884344 Z" id="path-5"></path>
        <filter x="-20.7%" y="-128.5%" width="142.5%" height="356.8%" filterUnits="objectBoundingBox" id="filter-7">
            <feGaussianBlur stdDeviation="7" in="SourceGraphic"></feGaussianBlur>
        </filter>
        <path d="M6.61810503,0.611178622 C8.78398988,0.131171996 10.8951339,-0.0660944217 12.951537,0.019379368 C15.6486587,0.131484435 18.3329255,0.733345192 21.0043374,1.82496164 L21.0043369,1.82496282 C23.4891877,2.84034499 24.9972785,5.38263092 24.6971036,8.05009776 L22.766312,25.2078679 C22.2989781,29.360773 19.0343934,32.6455999 14.8844563,33.1385953 C14.1558913,33.2251458 13.3879542,33.2684211 12.5806452,33.2684211 C11.0572938,33.2684211 9.62398617,33.1143361 8.28072226,32.8061662 L8.28072333,32.8061616 C4.38852637,31.9132187 1.55014821,28.5623412 1.3095618,24.5762827 L0.363611299,8.90364347 C0.126663402,4.97786821 2.77835207,1.46215039 6.61810503,0.611178622 Z" id="path-8"></path>
        <path d="M2.30141149,0.351092554 L2.30141149,0.351092554 C2.79928501,0.352368708 3.20185672,0.757009468 3.20058056,1.25488299 C3.20057155,1.25840079 3.20054194,1.26191851 3.20049174,1.26543597 L3.02840236,13.324191 L1.5126249,14.2836469 L1.39738687,1.26081734 C1.39298009,0.762814863 1.79311846,0.35553168 2.29112094,0.351124894 C2.29455103,0.351094542 2.29798128,0.351083761 2.30141149,0.351092554 Z" id="path-10"></path>
        <path d="M2.53134058,0.433818915 L2.53134058,0.433818915 C3.04677773,0.447615374 3.46070256,0.863447829 3.47212889,1.37894298 L3.77595222,15.0858393 L2.09614977,15.7247559 L1.64010899,1.3294364 C1.62492232,0.850055969 2.0012257,0.449130118 2.48060613,0.433943444 C2.49751279,0.433407845 2.51443149,0.433366317 2.53134058,0.433818915 Z" id="path-12"></path>
        <path d="M2.49367861,0.430532865 L2.49367861,0.430532865 C3.00904382,0.444327399 3.42283748,0.860238219 3.43400174,1.37566712 L3.74429728,15.7013235 L2.02749759,16.1158913 L1.59990198,1.32622745 C1.58600263,0.845477034 1.96446019,0.444484167 2.44521061,0.430584813 C2.46136299,0.430117819 2.47752525,0.430100496 2.49367861,0.430532865 Z" id="path-14"></path>
        <path d="M49.6911813,14.1005609 L73.8140436,0.0980746423 L26.5759782,111.644119 L26.5115414,111.634881 C22.8287352,117.079066 21.1214709,121.389182 21.3897488,124.565229 C21.7934111,129.344044 25.5809008,141.373706 29.215233,145.600148 C32.8495652,149.826589 42.1253665,157.020984 40.5767541,160.781 C39.0281418,164.541017 21.1874877,165.010304 16.6818047,154.844523 C12.1761216,144.678743 11.1831646,141.818551 3.08257536,130.457326 C-2.3178175,122.883176 -0.622460948,117.723538 8.16864502,114.978413 L49.6911813,14.1005609 Z" id="path-16"></path>
        <path d="M1.37601044,33.0284945 C1.40311401,84.1482629 2.91913338,116.263295 5.92406855,129.373591 C6.25545069,130.819385 5.25389484,139.144053 4.56602217,144.195948 C3.322644,153.327604 -3.57144498,173.78528 4.56602217,173.78528 C12.4211603,173.78528 22.250599,163.013863 21.0354642,151.236637 C19.8203294,139.45941 24.3777604,135.590683 24.3777604,127.119721 C24.3777604,123.96308 21.7559065,121.05989 16.5121988,118.410152 L28.3769149,-4.54747351e-13 L1.37601044,33.0284945 Z" id="path-18"></path>
    </defs>
    <g id="Page-1" stroke="none" stroke-width="1" fill="none" fill-rule="evenodd">
        <g id="Custom-Preset-Copy-17" transform="translate(-338.000000, 0.000000)">
            <g id="illustration" transform="translate(1276.500000, 283.500000) scale(-1, 1) translate(-1276.500000, -283.500000) translate(338.000000, -165.000000)">
                <g id="Rectangle" transform="translate(938.500000, 448.500000) scale(-1, 1) translate(-938.500000, -448.500000) ">
                    <mask id="mask-3" fill="white">
                        <use xlink:href="#path-2"></use>
                    </mask>
                    <use id="Mask" fill="url(#linearGradient-1)" xlink:href="#path-2"></use>
                    <polygon fill="url(#linearGradient-4)" mask="url(#mask-3)" points="-162.515976 683.778663 1412.19144 683.778663 1476.14962 911.280822 -162.515976 877.117259"></polygon>
                </g>
                <g id="plant" transform="translate(1113.000000, 211.000000)">
                    <g id="pot" transform="translate(38.926431, 442.042691)">
                        <path d="M38.5256681,0.740878232 L82.6514436,0.740878232 C103.928583,0.740878232 121.177112,17.9894073 121.177112,39.2665463 L121.177112,39.2665463 C121.177112,60.5436853 103.928583,77.7922144 82.6514436,77.7922144 L38.5256681,77.7922144 C17.2485291,77.7922144 2.60569801e-15,60.5436853 0,39.2665463 L0,39.2665463 C-2.60569801e-15,17.9894073 17.2485291,0.740878232 38.5256681,0.740878232 Z" id="Rectangle" fill="#FFF88D"></path>
                        <path d="M24.3518184,0.799518253 C40.3786168,0.266506084 52.1287566,0 59.6022376,0 C67.1481267,0 79.6850451,0.271695274 97.2129927,0.815085822 L97.2129916,0.815123158 C100.654793,0.921823738 103.389646,3.74277495 103.389646,7.18622958 L103.389646,7.18622958 C103.389646,11.1615086 100.891759,14.7080301 97.148785,16.0470567 C87.7044874,19.4257083 75.4603547,21.1150296 60.41639,21.1150296 C45.3574702,21.1150296 33.1039517,19.4223479 23.6558346,16.0369845 L23.6558243,16.0370133 C19.9574655,14.7118511 17.5745513,11.1081663 17.8032984,7.18622958 L17.8032984,7.18622958 C18.0075163,3.68485425 20.84643,0.916078766 24.3518178,0.799498133 Z" id="Rectangle-Copy-6" fill="#B2AD5A"></path>
                        <path d="M26.7901354,0.699276598 C41.7652201,0.233092199 52.7282062,0 59.6790936,0 C66.6922335,0 78.3808583,0.237286063 94.7449681,0.711858189 L94.7449671,0.711894284 C97.701912,0.797648026 100.054496,3.2194478 100.054496,6.17763595 L100.054496,6.17763595 C100.054496,9.55771342 97.9053925,12.5637911 94.7071032,13.6573493 C85.944479,16.6534598 74.5187135,18.1515167 60.4298055,18.1515167 C46.3301956,18.1515167 34.8977756,16.6511831 26.1325453,13.6505159 L26.1325395,13.6505331 C22.9741272,12.5692901 20.9287719,9.50948318 21.1372146,6.17763595 L21.1372146,6.17763595 C21.3255983,3.16642005 23.774493,0.793139938 26.7901349,0.699260988 Z" id="Rectangle-Copy-7" fill="#354974"></path>
                    </g>
                    <g id="leafs">
                        <g id="Group-5" transform="translate(0.000000, 160.000000)">
                            <path d="M48.5325435,144.395327 C64.3128059,161.325528 68.2575521,129.059792 78.1318517,127.075918 C91.3684317,124.416518 101.718262,100.66034 93.0790725,93.1504075 C87.3265866,88.1498478 90.2770044,67.4548042 92.2003097,65.2422945 C104.905588,50.6265441 96.6613319,36.9806186 93.0575812,32.24332 C81.050995,16.4601016 77.1040753,-5.3056108 66.1357437,3.85700961 C53.2114149,14.6536122 62.6730292,20.2071822 47.3224621,37.8659897 C31.971895,55.5247971 64.1648376,46.938819 48.2173644,72.9740215 C32.2698911,99.009224 49.8279889,102.623851 49.3919993,108.916299 C48.8962612,116.071072 32.7522811,127.465127 48.5325435,144.395327 Z" id="Oval-Copy" fill="#4CE2F0" transform="translate(70.269868, 75.485846) rotate(-41.000000) translate(-70.269868, -75.485846) "></path>
                            <path d="M60.4058223,119.690288 C66.7898998,131.71661 69.5891382,109.964688 73.9985856,108.957943 C79.9094862,107.608393 85.245975,91.8488043 81.6929081,86.457861 C79.3270649,82.8682503 81.3073754,68.9311309 82.2264496,67.4963142 C88.2978169,58.0179724 85.1208002,48.4782576 83.6915785,45.1410008 C78.9298525,34.0222901 77.9110912,19.1220829 72.7836566,24.9609457 C66.7418399,31.8410606 70.7212212,35.9331477 63.3857712,47.3849177 C56.0503211,58.8366877 70.496168,54.1176831 62.6219465,71.2310598 C54.7477249,88.3444365 62.3529509,91.3992205 61.9536803,95.6527138 C61.4996933,100.48911 54.0217449,107.663966 60.4058223,119.690288 Z" id="Oval-Copy-2" fill="#D7DECE" style="mix-blend-mode: multiply;" transform="translate(71.822620, 73.477145) rotate(-41.000000) translate(-71.822620, -73.477145) "></path>
                        </g>
                        <g id="leaf" transform="translate(176.226472, 112.074745) rotate(18.000000) translate(-176.226472, -112.074745) translate(126.726472, 11.074745)">
                            <path d="M60.556599,194.432681 C79.6457219,176.7518 96.626871,147.414703 85.3890867,134.513056 C77.9063016,125.922372 78.7330554,95.2367464 80.7320135,92.2486239 C93.9370505,72.5092061 82.3742064,50.4221127 77.4787519,42.6194742 C61.1686066,16.6234881 24.5372611,-4.59234013 12.6902215,7.23597677 C-1.26951631,21.173653 42.7383799,30.5631595 27.1591001,66.9411719 C11.5798202,103.319184 42.9555039,128.18109 43.2520325,137.595111 C43.5891976,148.299239 41.4674761,212.113562 60.556599,194.432681 Z" id="Oval-Copy-3" fill="#4CE2F0" transform="translate(49.449973, 100.693093) scale(-1, 1) rotate(-6.000000) translate(-49.449973, -100.693093) "></path>
                            <path d="M52.1559846,173.436109 C58.760315,161.155837 64.8665941,133.880188 61.201696,124.601236 C58.761389,118.422758 59.3337529,96.7017325 60.0362168,94.6108185 C64.6766653,80.7983238 60.99009,65.0101558 59.4144554,59.4224723 C54.1649268,40.8060333 34.8565484,16.41566 30.7496022,24.6426995 C25.9102587,34.3368778 46.118401,56.6461438 40.5183433,82.2120356 C34.9182857,107.777927 44.2284305,128.517198 44.2383022,135.187929 C44.2495267,142.772825 45.5516542,185.716381 52.1559846,173.436109 Z" id="Oval-Copy-6" fill="#BCDCD8" style="mix-blend-mode: multiply;" transform="translate(46.148927, 99.314487) scale(-1, 1) rotate(-6.000000) translate(-46.148927, -99.314487) "></path>
                        </g>
                        <g id="Group-6" transform="translate(233.500000, 189.000000) rotate(13.000000) translate(-233.500000, -189.000000) translate(134.000000, 87.000000)">
                            <path d="M120.436315,196.423018 C139.752296,184.350556 153.423148,153.016005 138.470528,139.324745 C128.514184,130.20829 124.754036,102.98991 126.602124,100.711575 C138.81052,85.6609865 122.071518,63.7111023 115.222504,55.7996739 C92.4036976,29.4412332 78.5831688,-1.95458781 66.7267342,6.30087996 C52.7559261,16.0285562 69.1006861,45.262629 56.7082396,74.6981675 C44.3157931,104.133706 81.5556046,135.325512 83.3441728,143.782543 C85.3778483,153.398535 101.120334,208.49548 120.436315,196.423018 Z" id="Oval-Copy-4" fill="#4CE2F0" transform="translate(99.504283, 101.549693) rotate(43.000000) translate(-99.504283, -101.549693) "></path>
                            <path d="M106.479452,164.393515 C112.423259,156.206944 115.747269,136.398832 110.25388,128.570551 C106.596055,123.358016 104.293762,106.769575 104.818939,105.295589 C108.288235,95.5584944 101.882035,82.722432 99.3022733,78.1281361 C90.7073024,62.8213587 84.9039492,44.0615638 81.2882892,49.6063358 C77.0278438,56.1399143 83.585316,73.470704 80.6120851,92.0605838 C77.6388543,110.650464 91.2076768,128.359675 92.1288981,133.489373 C93.1763645,139.32205 100.535645,172.580087 106.479452,164.393515 Z" id="Oval-Copy-5" fill="#C9D9B8" style="mix-blend-mode: multiply;" transform="translate(96.424675, 107.147144) rotate(43.000000) translate(-96.424675, -107.147144) "></path>
                        </g>
                        <path d="M105.372429,445.270327 C105.258811,402.564974 105.258811,371.652305 105.372429,352.53232 C105.654452,305.072685 94.1969759,266.228579 71,236" id="Path-56" stroke="#4D5E4A" stroke-width="3"></path>
                        <path d="M111.327658,447.342935 C115.953339,385.710056 119.172868,345.930302 120.986245,328.003674 C125.070586,287.626833 128.480123,254.149309 131.214859,227.571101 C136.293015,178.217767 155.146853,124.742368 187.776371,67.1449044" id="Path-57" stroke="#4D5E4A" stroke-width="3"></path>
                        <path d="M115,445.636929 C129.97711,365.941587 145.828856,307.729277 162.555239,271 C185,221.713799 241.435857,174.236361 268.400848,150.491204" id="Path-55" stroke="#4D5E4A" stroke-width="3"></path>
                    </g>
                </g>
                <rect id="Rectangle-Copy-3" fill="#DCD9D9" x="1468" y="601" width="5" height="137"></rect>
                <rect id="Rectangle-Copy-4" fill="#DCD9D9" x="1570" y="631" width="5" height="137"></rect>
                <g id="shoes" transform="translate(1286.000000, 800.000000)" fill="#273D2A">
                    <path d="M9.2661762,36.0782162 C16.9402794,48.6105774 20.6763126,52.457496 24.1273575,47.9355071 C26.4280541,44.9208478 24.3208456,31.8899562 17.8057321,8.8428325 L4.99076093,16.6840719 C2.72496895,21.258594 4.15010738,27.7233087 9.2661762,36.0782162 Z" id="Path-58" transform="translate(14.487778, 29.302338) rotate(-11.000000) translate(-14.487778, -29.302338) "></path>
                    <path d="M48.4520188,29.2515292 C56.0149776,41.5491679 59.7278357,45.2989864 63.2682879,40.7488162 C65.6285893,37.7153694 63.6834926,24.8219755 57.4329979,2.0686347 L44.4088478,10.0826988 C42.0623227,14.6634932 43.4100463,21.0531033 48.4520188,29.2515292 Z" id="Path-58-Copy" transform="translate(53.764876, 22.341614) rotate(-15.000000) translate(-53.764876, -22.341614) "></path>
                </g>
                <path d="M1285.652,576.243412 C1278.80562,594.831293 1274.93916,611.115501 1274.05263,625.096037 C1272.92614,642.860629 1290.32201,680.78607 1284.22844,737.794396 C1281.0866,767.187799 1283.22061,794.923 1290.63047,821 L1303.26353,814.937758 L1309.39491,737.794396 L1313.5202,642.955767 C1324.91332,659.455225 1329.68831,682.484521 1327.84518,712.043653 C1326.00205,741.602785 1326.00205,775.947724 1327.84518,815.07847 L1343.06971,809.15885 C1351.4501,698.622343 1353.93223,627.234368 1350.51609,594.994925 C1347.09994,562.755482 1325.47858,556.504978 1285.652,576.243412 Z" id="pants" fill="#4C5AF0"></path>
                <g id="table" transform="translate(1241.000000, 600.000000)">
                    <path d="M7.04735062,71.4794829 L114.546957,113.522452 C115.881464,114.044376 117.358699,114.071462 118.711442,113.598811 L311.615154,46.1978402 C314.743408,45.1048215 316.393292,41.6828037 315.300274,38.5545495 C314.630359,36.6372332 313.03598,35.1889656 311.063293,34.7058542 L223.467218,13.2535506 C222.562074,13.0318806 221.617738,13.024094 220.709062,13.2308081 L7.04735062,61.8365504 L7.04735062,71.4794829 Z" id="Path-51-Copy" fill="#CCC8C8"></path>
                    <path d="M114.022158,94.4935065 L114.022158,94.4935065 C115.660955,94.4935065 116.989463,95.8220144 116.989463,97.460812 L116.989463,193.481242 L111.054852,191.20608 L111.054852,97.460812 C111.054852,95.8220144 112.38336,94.4935065 114.022158,94.4935065 Z" id="Rectangle" fill="#DCD9D9"></path>
                    <rect id="Rectangle-Copy-2" fill="#DCD9D9" transform="translate(5.049584, 136.024453) scale(-1, 1) translate(-5.049584, -136.024453) " x="2.77637131" y="58.3636364" width="4.54642539" height="155.321634"></rect>
                    <path d="M2.88414577,59.5288349 L111.65573,101.544258 C112.960988,102.048442 114.401416,102.080579 115.727861,101.635109 L310.550027,36.2064905 C313.691319,35.1515264 315.382622,31.7497888 314.327658,28.6084969 C313.695797,26.7270472 312.17442,25.2797961 310.26378,24.7426211 L223.829376,0.441653489 C222.800798,0.152469817 221.713658,0.143194617 220.680296,0.414786372 L2.99027983,57.628854 C2.45613538,57.7692397 2.13693089,58.3160545 2.27731664,58.850199 C2.35892564,59.1607076 2.584658,59.4131512 2.88414577,59.5288349 Z" id="Path-51" fill="#F2EEEE"></path>
                </g>
                <g id="beard-man" transform="translate(1282.000000, 447.000000)">
                    <path d="M59.2706923,203.938851 C68.6383585,207.540898 63.2748949,197.339973 62.9785235,193.101665 C62.6821522,188.863357 58.4934486,177.140803 52.0010284,177.144075 C45.5086082,177.147346 38.9402405,182.410222 36.2181905,192.310526 C35.1324959,196.25928 42.7027132,189.323546 46.0758784,191.593108 C49.8837101,194.155125 50.3273855,200.499978 59.2706923,203.938851 Z" id="left-hand" fill="#F4C6A8" transform="translate(50.443238, 190.919733) scale(-1, 1) rotate(4.000000) translate(-50.443238, -190.919733) "></path>
                    <path d="M135.429913,189.617453 C141.50254,181.558803 156.13039,180.191563 147.225088,173.964726 C138.319786,167.737888 137.162393,161.524803 130.68677,161.502209 C124.211147,161.479615 117.362292,167.306026 117.392776,176.025495 C117.407096,180.121335 121.461349,173.676388 124.834898,175.965311 C128.643163,178.549185 129.577474,197.383902 135.429913,189.617453 Z" id="right-hand" fill="#F4C6A8" transform="translate(133.710209, 176.492378) rotate(-37.000000) translate(-133.710209, -176.492378) "></path>
                    <path d="M96.5538529,95.5856865 L116.616446,65.7621109 C117.328826,62.9422378 117.328826,61.0287284 116.616446,60.0215827 C116.425753,59.7519869 114.262861,57.7852143 111.929066,56.493888 C101.185109,50.5490841 73.2586587,37.3435202 71.5165684,37.7384013 C70.1028977,38.0588393 68.3692971,39.2015666 66.3157664,41.1665832 C58.2201788,40.4095213 52.6787299,40.0254564 49.6914196,40.0143885 C44.1445717,39.9938376 40.1420497,40.9732411 38.0136546,41.1665832 C32.2419578,41.6908807 29.94695,42.0020477 26.255127,44.3583233 C22.563304,46.714599 21.4138871,49.8095339 20.3587222,52.4346986 C18.2604086,57.6551324 18.767309,63.0104333 17.9321979,67.0968826 C16.6771402,73.2382575 16.1472393,81.5310708 16.3424953,91.9753227 C10.9784548,97.0400489 7.2823433,101.826452 5.25416083,106.334532 C3.22597836,110.842613 1.51067741,118.464711 0.108257958,129.200829 C11.9295971,147.214861 18.6797518,157.355161 20.3587222,159.62173 C22.0376925,161.888298 27.6393482,158.059801 37.1636893,148.136238 L44.6819755,164.042635 C60.0983251,149.117572 68.1157804,141.236286 68.7343413,140.398778 C69.6621827,139.142515 68.3409758,133.454104 68.7343413,132.640288 C69.1277067,131.826472 69.6621827,130.679533 70.3394723,129.200829 C70.7909988,128.215026 72.035539,124.174462 74.0730932,117.079137 L96.5538529,95.5856865 Z" id="sweater" fill="#2389DA"></path>
                    <polygon id="neck" fill="#E6B99C" points="75.4655274 39.137723 70.6107143 49.577475 73.0381208 67.4186603 88.0004604 75.2659178 104.477402 59.2204499"></polygon>
                    <g id="Path-47" transform="translate(67.923445, 12.226619)">
                        <path d="M6.81268005,28.5084108 C6.02940841,27.8768872 5.31217638,27.6572736 4.66098397,27.8495698 C3.68419535,28.138014 0.368387222,29.2214702 0.368387222,30.0657065 C0.368387222,30.9099429 -0.354365262,93.5819769 0.368387222,94.8489209 C1.09113971,96.1158648 7.20155492,91.2357724 12.2928396,83.3590678 C17.3841244,75.4823632 18.8591752,68.8494244 21.5376937,64.0971223 C23.3233727,60.9289209 25.287726,58.3968667 27.4307534,56.5009598 L25.342555,51.3465128 C21.0007831,55.4095437 17.3069559,57.1940567 14.2610734,56.7000519 C9.69224974,55.9590447 4.66098397,43.8706401 3.49475327,40.2080799 C2.86847036,38.2412316 3.59609575,35.4559856 5.39811645,31.5921156 C5.68815913,30.9702098 6.15968033,29.9423082 6.81268005,28.5084108 Z" id="Path-48" fill="#FFFFFF"></path>
                        <mask id="mask-6" fill="white">
                            <use xlink:href="#path-5"></use>
                        </mask>
                        <use id="Mask" fill="#F4C6A8" transform="translate(29.620130, 30.389824) rotate(17.000000) translate(-29.620130, -30.389824) " xlink:href="#path-5"></use>
                        <path d="M13.4344976,22.8841075 C13.5754995,23.0326708 13.6556012,23.1517847 13.6748027,23.2414491 C15.4125415,31.356105 18.364216,38.4179831 22.7526481,44.3329742 C27.2138163,50.3460034 33.0028061,51.5 40.1196172,47.794964 C38.7318491,54.1548352 36.0905134,57.8598712 32.1956101,58.9100719 C26.3532553,60.4853731 23.1137422,57.1903922 18.8295914,53.5354922 C14.5454407,49.8805922 10.3104508,41.2859539 8.95827442,37.5631881 C7.60609807,33.8404222 9.50015596,31.7106793 10.2986339,29.0921945 C10.8309526,27.346538 11.8762405,25.2771757 13.4344976,22.8841075 Z" fill="#D79E41" mask="url(#mask-6)"></path>
                    </g>
                    <path d="M77.570842,41.1905255 C79.7350535,41.1907989 81.4890714,37.873411 81.4885506,33.7809322 C81.4880298,29.6884533 79.7331674,26.3706221 77.5689559,26.3703487 C75.4047444,26.3700752 74.5801173,27.2617538 73.4093963,32.5358258 C72.2386752,37.8098978 75.4066304,41.190252 77.570842,41.1905255 Z" id="Oval" fill="#F4C6A8" transform="translate(77.322964, 33.780437) rotate(-1.000000) translate(-77.322964, -33.780437) "></path>
                    <path d="M119.079846,34.2969282 C119.500442,32.2240803 119.964527,30.6183193 120.472099,29.4796452 C122.410119,25.131944 126.31532,23.3426417 124.374264,19.3760456 C122.00626,14.5369689 111.739088,2.51900983 104.303158,0.593594812 C96.8672272,-1.33182021 86.5152507,1.68696729 80.7532182,7.05117157 C76.9118633,10.6273077 74.7758149,17.7713447 74.3450732,28.4832824 C76.4786969,27.0726358 78.0739051,26.8013843 79.130698,27.6695278 C80.1874908,28.5376714 80.9485642,31.2728865 81.413918,35.8751732 C84.2487886,29.8115696 86.8016744,25.633754 89.0725751,23.3417266 C92.4789263,19.9036855 92.6423418,19.3760456 95.5878473,18.5826796 C97.1314444,18.1669148 101.292885,18.2938078 104.303158,19.8323287 C107.037113,21.2296268 108.656528,24.0101886 109.633509,24.4532374 C110.181112,24.7015683 113.602713,24.0069658 114.73982,25.1942446 C115.876184,26.3807478 117.32286,29.4149756 119.079846,34.2969282 Z" id="Path-45" fill="#F0B24C"></path>
                    <path d="M44.5195168,72.2482014 C37.3734001,54.2186091 31.9661671,45.0795204 28.297818,44.8309353 C22.7952942,44.4580576 18.0880509,52.4346986 17.1526029,70.3936868 C16.2171549,88.3526751 14.6282924,92.9215407 15.9244322,99.6654676 C17.4707839,107.711268 16.9841353,119.178878 18.0880509,122.84612 C19.1919664,126.513362 24.0948817,138.373763 25.4638146,146.12706 C29.6841743,170.030132 36.249994,184.98496 37.4975275,185.622302 C38.7450611,186.259645 56.0097467,180.838154 56.9809512,178.767986 C57.9521557,176.697817 50.1107789,155.196981 49.4797279,139.857894 C49.069195,129.878988 45.4979734,131.124397 44.5195168,122.84612 C43.5410603,114.567843 46.5289166,109.558354 46.5289166,100.776978 C46.5289166,94.9227277 45.8591167,85.4131354 44.5195168,72.2482014 Z" id="Path-49" fill="#23A6DA"></path>
                    <path d="M116.996442,61.4020127 C117.45035,66.2857232 118.145365,71.4674545 119.081485,76.9472066 C120.485666,85.1668347 118.642351,109.04841 119.081485,115.090942 C119.520619,121.133474 122.164855,120.472141 122.417136,122.84612 C122.669417,125.220099 119.976723,125.76137 120.63924,129.200829 C121.301758,132.640288 126.496147,144.229939 130.382805,164.734925 C130.382805,167.274747 121.66648,168.326665 118.621729,171.023112 C118.003239,169.028442 116.280931,164.36881 113.454802,157.044216 L100.932485,131.366363 L96.5343948,94.8055873 L116.996442,61.4020127 Z" id="right-arm" fill="#23A6DA"></path>
                    <g id="glasses" transform="translate(81.358852, 31.122302)" stroke="#8F2186">
                        <path d="M13.0653892,6.81725965 L16.5926857,6.76113114 C18.932955,6.72389133 20.8603069,8.5908656 20.8975467,10.9311349 C20.899345,11.044147 20.8966216,11.1571859 20.8893829,11.2699803 L20.8893829,11.2699803 C20.7247128,13.8359017 18.5754446,15.8211028 16.0045431,15.7819295 L12.2881227,15.7253018 C10.0285492,15.6908723 8.22471359,13.8312155 8.25914308,11.571642 C8.26066346,11.4718613 8.26583355,11.3721697 8.274643,11.2727671 L8.274643,11.2727671 C8.49554411,8.78019845 10.5633679,6.85707336 13.0653892,6.81725965 Z" id="Rectangle" transform="translate(14.578371, 11.271541) rotate(6.000000) translate(-14.578371, -11.271541) "></path>
                        <path d="M29.7119288,8.89650278 L33.2392253,8.84037426 C35.5794946,8.80313445 37.5068465,10.6701087 37.5440863,13.010378 C37.5458847,13.1233902 37.5431612,13.236429 37.5359225,13.3492234 L37.5359225,13.3492234 C37.3712524,15.9151449 35.2219842,17.9003459 32.6510827,17.8611727 L28.9346624,17.804545 C26.6750889,17.7701155 24.8712532,15.9104586 24.9056827,13.6508851 C24.9072031,13.5511044 24.9123732,13.4514128 24.9211826,13.3520102 L24.9211826,13.3520102 C25.1420837,10.8594416 27.2099075,8.93631648 29.7119288,8.89650278 Z" id="Rectangle-Copy-5" transform="translate(31.224910, 13.350785) rotate(6.000000) translate(-31.224910, -13.350785) "></path>
                        <path d="M20.1695421,10.9425742 C21.4278284,11.6059704 24.0736074,12.0387648 25.7664079,11.3094213" id="Path-2" transform="translate(22.967975, 11.315735) scale(1, -1) rotate(-12.000000) translate(-22.967975, -11.315735) "></path>
                        <path d="M8.99770272,10.1392225 L0.25933987,0.206433752 L8.99770272,10.1392225 Z" id="Path-53"></path>
                    </g>
                </g>
                <g id="cup" transform="translate(1313.500000, 652.500000) scale(-1, 1) translate(-1313.500000, -652.500000) translate(1299.000000, 639.000000)">
                    <path d="M7.18528214,0.377762106 C9.07161102,0.0745336706 10.9151832,-0.0461443926 12.7159986,0.0157279162 C15.1238981,0.098458381 17.521362,0.509834852 19.9083904,1.24985733 L19.9083893,1.24986092 C22.7095155,2.11826132 24.4724504,4.88427641 24.0768604,7.79012155 L22.5285776,19.1631718 C21.9611858,23.3310035 18.5826079,26.5499726 14.392215,26.9151611 C13.7432197,26.9717204 13.0630986,27 12.3518519,27 C11.0950981,27 9.90076442,26.9117055 8.76885086,26.7351165 L8.76885107,26.7351152 C4.63086534,26.089551 1.48503763,22.6750117 1.18005073,18.4980915 L0.476225119,8.85894946 C0.173979515,4.71957247 3.08749255,1.0364841 7.18528214,0.377762106 Z" id="Rectangle" fill="#FDFDFD"></path>
                    <ellipse id="Oval" fill="#D8D8D8" transform="translate(12.229861, 3.965877) rotate(2.000000) translate(-12.229861, -3.965877) " cx="12.2298614" cy="3.96587732" rx="8.95082556" ry="1.82429263"></ellipse>
                    <path d="M22.3984145,8.02702703 C26.2077161,8.02702703 28.3846769,9.14885874 28.9292969,11.3925222 C29.4196322,13.4125499 27.2774718,14.6883043 25.0437406,16.1342998 C24.2988368,16.6165098 22.9920756,17.6843558 21.1234568,19.3378378 L22.3984145,8.02702703 Z" id="Path-40-Copy" stroke="#FFFFFF" stroke-width="2"></path>
                </g>
                <g id="notebook" transform="translate(1486.460473, 629.119237) rotate(21.000000) translate(-1486.460473, -629.119237) translate(1443.460473, 612.119237)">
                    <polygon id="Path" fill="#CDCACA" points="41.0665293 2.77480627 83.3593662 13.7793699 83.6944712 17.5620383 40.2682534 5.88733169"></polygon>
                    <path d="M1.36626875,19.905043 L42.6678291,33.5568932 C42.8924483,33.631139 43.1361158,33.6233469 43.3555324,33.5349015 L83.7242966,17.2625112 C84.2365319,17.0560325 84.4843965,16.4733996 84.2779178,15.9611644 C84.1602005,15.6691297 83.9118145,15.4495932 83.607531,15.3686417 L44.2157065,4.8888414 C44.0339646,4.84049077 43.8422717,4.84436916 43.6626341,4.90003133 L1.384134,18.0003716 C0.856594023,18.1638342 0.561450988,18.7240025 0.72491358,19.2515425 C0.820555295,19.5602053 1.05945424,19.8036283 1.36626875,19.905043 Z" id="Path-50-Copy-3" fill="#AFA5A5"></path>
                    <path d="M2.14116005,19.0680209 L42.6281037,32.479939 C42.856418,32.5555716 43.1043429,32.5463826 43.326432,32.4540564 L83.4149695,15.7885777 C83.9249426,15.5765733 84.166494,14.9912949 83.9544896,14.4813218 C83.8350816,14.1940878 83.5888078,13.9787782 83.2881987,13.8988042 L43.8564257,3.40837597 C43.6674773,3.35810814 43.4679378,3.36433347 43.2824904,3.42628188 L2.13878234,17.1702706 C1.6149515,17.3452555 1.33215594,17.9117575 1.50714078,18.4355883 C1.60700381,18.7345361 1.84196294,18.9689073 2.14116005,19.0680209 Z" id="Path-50-Copy-2" fill="#F7ECEC"></path>
                    <path d="M3.11743314,17.9360816 L42.9058233,31.1213858 C43.1405521,31.1991716 43.3957772,31.1872288 43.6222166,31.0878636 L83.521854,13.5792718 C84.027589,13.3573473 84.2576629,12.7674626 84.0357384,12.2617276 C83.9134986,11.9831601 83.6711033,11.7753829 83.3771212,11.697172 L43.872944,1.18748137 C43.673711,1.13447742 43.4629651,1.14434704 43.2695577,1.21573907 L3.08570743,16.0487173 C2.56759373,16.2399675 2.3026185,16.8150205 2.4938687,17.3331342 C2.59920312,17.6184945 2.82869386,17.8403975 3.11743314,17.9360816 Z" id="Path-50-Copy-4" fill="#FFFFFF"></path>
                    <g id="Group" transform="translate(67.112157, 6.304986)">
                        <ellipse id="Oval" stroke="#191212" cx="0.556178093" cy="4.26513754" rx="1" ry="1"></ellipse>
                        <path d="M0.471488058,4.44482746 C1.68222841,0.688890504 6.74533072,-1.31456777 8.83079651,1.79685617 C9.01601301,2.07319111 9.62383311,3.39076113 9.56249685,3.62115236" id="Path-61" stroke="#4B3535" stroke-width="2"></path>
                    </g>
                    <path d="M45.1914708,23.2111786 L60.9984674,15.4575142 C62.1897958,14.8731425 63.6265314,15.1837335 64.4701058,16.2080069 L64.4701058,16.2080069 C65.0963673,16.9684175 64.9876179,18.0925373 64.2272073,18.7187987 C64.1187044,18.8081598 64.0000189,18.8843819 63.8736209,18.9458786 L47.9103845,26.7124983 C46.7505225,27.2768079 45.3539407,26.951736 44.5624974,25.9332359 L44.5624974,25.9332359 C43.9521727,25.1478154 44.0941159,24.0163403 44.8795364,23.4060156 C44.9765935,23.3305957 45.0811165,23.2653097 45.1914708,23.2111786 Z" id="Rectangle" fill="#DFDFDF"></path>
                    <path d="M37.5038002,18.0724085 L51.4035567,11.98984 C52.4149171,11.5472661 53.5956522,11.7945064 54.3444887,12.6056573 L54.3444887,12.6056573 C54.8351022,13.1370972 54.8020059,13.9656353 54.2705659,14.4562489 C54.1625491,14.5559676 54.0385135,14.6367875 53.9036601,14.6953198 L39.8669255,20.7878735 C38.8852342,21.2139703 37.7406391,20.9551849 37.0377365,20.1482126 L37.0377365,20.1482126 C36.5590192,19.5986178 36.6164767,18.7650062 37.1660715,18.2862888 C37.2671341,18.1982596 37.3810165,18.126139 37.5038002,18.0724085 Z" id="Rectangle-Copy-8" fill="#DFDFDF"></path>
                    <g id="Group-Copy" transform="translate(55.734245, 2.742708)">
                        <ellipse id="Oval" stroke="#191212" cx="0.556178093" cy="4.26513754" rx="1" ry="1"></ellipse>
                        <path d="M0.471488058,4.44482746 C1.66405281,0.74527454 6.37842516,-1.13078137 8.76167983,1.77151851 C9.26963488,2.39010029 9.66004715,3.51416386 9.55116454,3.97949566" id="Path-61" stroke="#4B3535" stroke-width="2"></path>
                    </g>
                    <g id="Group-Copy-2" transform="translate(44.937809, 0.334643)">
                        <ellipse id="Oval" stroke="#191212" cx="0.556178093" cy="3.52337449" rx="1" ry="1"></ellipse>
                        <path d="M0.471488058,3.70306441 C3.66347917,-2.9670522 9.60977157,1.22245483 9.25917841,3.64081353" id="Path-61" stroke="#4B3535" stroke-width="2"></path>
                    </g>
                </g>
                <g id="computer" transform="translate(1360.000000, 598.000000)">
                    <path d="M7.8010499,62.6867345 L52.6481674,70.3651176 C52.826778,70.3956979 53.0103412,70.3771706 53.1792386,70.3115158 L85.8434617,57.6140816 C86.358222,57.4139809 86.613304,56.8344715 86.4132032,56.3197113 C86.270345,55.9522077 85.9248721,55.7029569 85.5310703,55.6832726 L53.019586,54.0581757 C52.954104,54.0549025 52.8884589,54.0580771 52.8235983,54.0676537 L7.82374205,60.7118017 C7.27738053,60.792471 6.8998624,61.3007799 6.98053169,61.8471415 C7.04370321,62.274993 7.37476277,62.6137488 7.8010499,62.6867345 Z" id="shadow" fill="#808080" filter="url(#filter-7)"></path>
                    <path d="M1.1413701,61.2473728 L51.4191151,70.1401969 C51.576165,70.1679749 51.7375811,70.1577863 51.8898917,70.1104813 L76.95043,62.3271209 C77.4778619,62.1633098 77.7726349,61.6029468 77.6088238,61.0755149 C77.5123357,60.7648465 77.2707622,60.5205272 76.9612042,60.4205342 L52.9804132,52.6742907 C52.8335931,52.626865 52.6777902,52.614056 52.5251957,52.6368657 L6.82041567,59.4688056 L0.315540637,58.6868758 L0.315540637,60.2626573 C0.315540637,60.7477507 0.663691091,61.1628838 1.1413701,61.2473728 Z" id="highlight" fill="#E5E5E5"></path>
                    <path d="M4.65611634,59.6206005 L51.6372833,67.5556986 C51.7593922,67.5763227 51.8842696,67.5740865 52.0055618,67.5491036 L97.940369,58.0877943 C98.4812985,57.9763777 98.8294876,57.4475466 98.7180709,56.9066171 C98.63246,56.4909747 98.2938332,56.1746318 97.8733334,56.1174686 L53.0669022,50.026439 C52.9702376,50.0132983 52.8721704,50.014373 52.775817,50.0296287 L4.66627399,57.6468694 C4.12078429,57.7332375 3.74859264,58.2454594 3.83496067,58.7909491 C3.90212325,59.2151395 4.23263961,59.5490754 4.65611634,59.6206005 Z" id="Path-50" fill="#C4C2C2"></path>
                    <path d="M31.8484132,62.3052571 L54.5417743,66.1022151 C54.6627895,66.1224628 54.7864978,66.1202669 54.9067182,66.095737 L77.1655754,61.5540138 C77.7067105,61.4435999 78.0558791,60.9154151 77.9454652,60.37428 C77.8603969,59.9573625 77.5208161,59.6399369 77.0991149,59.5831479 L55.4677004,56.6701261 C55.3719163,56.6572273 55.2747681,56.6582822 55.1792867,56.6732582 L31.858483,60.3310453 C31.3128688,60.416623 30.9399355,60.9283051 31.0255132,61.4739194 C31.0922316,61.8992933 31.423742,62.2342029 31.8484132,62.3052571 Z" id="Path-50-Copy" fill="#717171"></path>
                    <path d="M53.9073518,-0.404913515 L101.274401,10.9809626 C101.988962,11.1527256 102.551759,11.7025457 102.740142,12.4129063 L117.194179,66.9167448 C117.477316,67.9844091 116.841331,69.0794501 115.773667,69.3625872 C115.617785,69.403926 115.457475,69.426259 115.29623,69.4290996 L69.0292756,70.24418 C68.0866289,70.2607865 67.2603939,69.6168258 67.0462981,68.6986637 L51.4921664,1.99386871 C51.2413334,0.918156599 51.91003,-0.157220742 52.9857421,-0.408053803 C53.2890008,-0.478767247 53.604582,-0.477691937 53.9073518,-0.404913515 Z" id="Rectangle" fill="#FFFFFF" transform="translate(84.401733, 35.243882) scale(1, -1) translate(-84.401733, -35.243882) "></path>
                    <path d="M53.923425,-0.448831482 L102.406476,11.6999601 C103.11266,11.8769144 103.666912,12.4236226 103.853526,13.1273158 L118.310898,67.6437289 C118.594035,68.7113933 117.95805,69.8064342 116.890386,70.0895714 C116.734504,70.1309102 116.574194,70.1532431 116.412949,70.1560838 L70.1248611,70.9715365 C69.1918417,70.9879734 68.3714539,70.3570026 68.1478819,69.4510164 L51.4955473,1.97035902 C51.2309092,0.897959625 51.8857291,-0.185923422 52.9581285,-0.450561529 C53.275209,-0.528808093 53.606627,-0.528214111 53.923425,-0.448831482 Z" id="Rectangle-Copy" fill="#D8D8D8" transform="translate(84.986722, 35.607374) scale(1, -1) translate(-84.986722, -35.607374) "></path>
                </g>
                <g id="pencil-cup" transform="translate(1471.000000, 621.000000)">
                    <g id="Rectangle" transform="translate(0.000000, 8.871579)">
                        <mask id="mask-9" fill="white">
                            <use xlink:href="#path-8"></use>
                        </mask>
                        <use id="Mask" fill="#6CAE56" xlink:href="#path-8"></use>
                        <path d="M-1.09396914,8.30842812 C8.22206542,10.9336512 16.9738186,11.3678009 25.1612903,9.61087719 C37.4424979,6.97549168 36.6859597,7.10028808 25.1612903,10.5734774 C17.4781774,12.8889369 8.84797636,12.5680702 -0.729312763,9.61087719 L-1.09396914,8.30842812 Z" fill="#725151" mask="url(#mask-9)"></path>
                    </g>
                    <path d="M12.702477,15.8471888 C18.3416075,15.8498817 23.2474022,14.8269913 23.2468093,13.5685188 C23.2462164,12.3100464 18.4168102,9.97960962 12.7776797,9.97691676 C7.13854922,9.97422389 2.20356884,11.7762201 2.20416171,13.0346925 C2.20475457,14.293165 7.06334652,15.844496 12.702477,15.8471888 Z" id="Oval-Copy-7" fill="#3F6825" transform="translate(12.725485, 12.912054) rotate(2.000000) translate(-12.725485, -12.912054) "></path>
                    <g id="pencil" transform="translate(20.956362, 10.121781) rotate(15.000000) translate(-20.956362, -10.121781) translate(18.456362, 2.621781)">
                        <mask id="mask-11" fill="white">
                            <use xlink:href="#path-10"></use>
                        </mask>
                        <use id="Mask" fill="#4A90E2" transform="translate(2.298967, 7.317368) rotate(11.000000) translate(-2.298967, -7.317368) " xlink:href="#path-10"></use>
                        <polygon id="Rectangle" fill="#F5A623" mask="url(#mask-11)" points="1.82328191 -0.369649123 4.74053296 -0.369649123 4.74053296 3.69649123 1.82328191 3.15063946"></polygon>
                        <polygon id="Rectangle" fill="#D8D8D8" style="mix-blend-mode: color-burn;" transform="translate(1.923025, 8.412782) rotate(11.000000) translate(-1.923025, -8.412782) " points="1.74060601 2.8924112 2.10544417 2.89334635 2.0977969 13.757969 1.74171126 13.9331535"></polygon>
                    </g>
                    <g id="pencil-copy" transform="translate(6.481066, 8.000000) scale(-1, 1) translate(-6.481066, -8.000000) translate(3.481066, 0.000000)">
                        <mask id="mask-13" fill="white">
                            <use xlink:href="#path-12"></use>
                        </mask>
                        <use id="Mask" fill="#4A90E2" transform="translate(2.707809, 8.079132) rotate(11.000000) translate(-2.707809, -8.079132) " xlink:href="#path-12"></use>
                        <polygon id="Rectangle" fill="#F5A623" mask="url(#mask-13)" points="2.18793829 -0.369649123 5.10518934 -0.369649123 5.10518934 4.06614035 2.18793829 3.47066569"></polygon>
                        <polygon id="Rectangle" fill="#D8D8D8" style="mix-blend-mode: color-burn;" transform="translate(2.296909, 9.400987) rotate(11.000000) translate(-2.296909, -9.400987) " points="1.98925933 3.28472072 2.3558229 3.29453235 2.60455888 15.4019308 2.26166185 15.517254"></polygon>
                    </g>
                    <g id="pencil-copy-2" transform="translate(15.315568, 0.000000)">
                        <mask id="mask-15" fill="white">
                            <use xlink:href="#path-14"></use>
                        </mask>
                        <use id="Mask" fill="#4A90E2" transform="translate(2.671914, 8.273056) rotate(11.000000) translate(-2.671914, -8.273056) " xlink:href="#path-14"></use>
                        <polygon id="Rectangle" fill="#F5A623" mask="url(#mask-15)" points="2.18793829 -0.369649123 5.10518934 -0.369649123 5.10518934 4.06614035 2.18793829 3.47066569"></polygon>
                        <polygon id="Rectangle" fill="#D8D8D8" style="mix-blend-mode: color-burn;" transform="translate(2.258375, 9.613393) rotate(11.000000) translate(-2.258375, -9.613393) " points="1.94802249 3.2812706 2.31458674 3.29134913 2.56872799 15.8651676 2.23202035 15.945515"></polygon>
                    </g>
                </g>
                <g id="lady" transform="translate(1461.000000, 409.000000)">
                    <g id="legs" transform="translate(69.635890, 216.529465)">
                        <g id="Path-4" transform="translate(0.696359, 0.000000)">
                            <mask id="mask-17" fill="white">
                                <use xlink:href="#path-16"></use>
                            </mask>
                            <use id="Mask" fill="#CB9E80" xlink:href="#path-16"></use>
                            <path d="M6.40213193,109.283815 C14.3610971,138.553961 21.6758043,152.791622 28.3462533,151.996797 C38.351927,150.804561 14.3955095,118.604284 24.7559907,121.157354 C31.6629782,122.8594 42.465524,135.705186 57.163628,159.694712 L11.5278525,173.489851 L-9.20600093,110.810731 L6.40213193,109.283815 Z" fill="#4CF068" mask="url(#mask-17)"></path>
                        </g>
                        <g id="Path-4-Copy" transform="translate(31.336151, 0.468768)">
                            <mask id="mask-19" fill="white">
                                <use xlink:href="#path-18"></use>
                            </mask>
                            <use id="Mask" fill="#E1B08F" xlink:href="#path-18"></use>
                            <path d="M16.0279592,117.95561 C14.6538809,147.72164 11.9872143,162.070359 8.02795924,161.001767 C4.06870422,159.933176 3.48179451,149.266509 6.26723012,129.001767 L-22.4720408,172.001767 L13.0279592,190.001767 L44.0279592,150.001767 L25.5279592,109.001767 L16.0279592,117.95561 Z" id="Path-3" fill="#53F16E" mask="url(#mask-19)"></path>
                        </g>
                    </g>
                    <path d="M58.4198066,154.882537 L116.526356,154.882537 C137.088465,193.104926 146.386341,213.626866 144.419983,216.448355 C142.453624,219.269844 128.343479,234.568037 102.089546,262.342935 C71.3022346,237.105563 54.0389178,219.608393 50.2995955,209.851424 C46.5602732,200.094455 49.2670102,181.771493 58.4198066,154.882537 Z" id="skirt" fill="#4CE7F0"></path>
                    <g id="top">
                        <path d="M87.4605022,44.512458 C88.6092893,54.2159306 89.7856793,59.7719365 90.9896722,61.1804758 C92.193665,62.5890151 99.467155,65.0280914 112.810142,68.4977048 L85.477016,107.108102 L64.065019,73.1008042 L65.3429655,61.1804758 L87.4605022,44.512458 Z" id="Path-34" fill="#CB9E7F"></path>
                        <path d="M62.6588332,63.9841543 C76.2988996,64.1756948 86.3485038,53.3552791 86.3485038,39.6527451 C86.3485038,25.9502111 79.3441421,13.9101431 68.9295123,13.9101431 C58.5148825,13.9101431 50.1378409,20.7317252 50.1378409,34.4342591 C50.1378409,48.1367931 54.9470781,61.8056536 62.6588332,63.9841543 Z" id="Oval" fill="#E1B08F"></path>
                        <ellipse id="Oval" fill="#59381A" cx="94.0084517" cy="13.9101431" rx="13.2308191" ry="13.9101431"></ellipse>
                        <path d="M70.5410236,13.466156 C65.7962404,14.8006232 51.0121551,36.6895623 50.3121314,30.8411776 C49.6121077,24.9927929 49.6121077,-0.180318688 79.1618105,3.07051852 C108.711513,6.32135572 99.6101791,33.6563638 96.4437564,37.3278536 C94.3328079,39.7755135 91.6165986,39.4504807 88.2951284,36.3527553 C84.9050767,34.0398247 82.5723272,31.7625468 81.2968799,29.5209216 C75.8715012,19.9857059 75.2858068,12.1316888 70.5410236,13.466156 Z" id="Path-30" fill="#65401F"></path>
                        <ellipse id="Oval" fill="#E1B08F" transform="translate(87.771170, 39.583741) rotate(29.000000) translate(-87.771170, -39.583741) " cx="87.7711701" cy="39.5837413" rx="4.33612862" ry="8.11317694"></ellipse>
                        <ellipse id="Oval" stroke="#FFFFFF" fill="#FFFFFF" cx="87.0448627" cy="45.2079652" rx="1" ry="1"></ellipse>
                        <path d="M88.7987648,41.6099145 C89.5980857,41.6116892 90.6256093,41.0926201 90.622415,39.6542891 C90.6192207,38.2159582 89.9686535,37.0485219 89.1693325,37.0467473 C88.3700116,37.0449727 87.7246234,38.2095317 87.7278177,39.6478627 C87.7310121,41.0861937 87.9994438,41.6081399 88.7987648,41.6099145 Z" id="Oval" fill="#D8D8D8" style="mix-blend-mode: multiply;" transform="translate(89.175114, 39.328332) rotate(47.000000) translate(-89.175114, -39.328332) "></path>
                        <path d="M65.2120599,66.7268812 C61.3134274,68.9159823 57.4075659,70.7574672 53.4944754,72.2513359 C51.3298905,73.0776918 46.0333756,72.979054 42.6321099,74.0548293 C39.88464,74.9238176 38.1698801,75.6533342 35.6928768,77.9556191 C33.2158734,80.2579039 14.2493756,122.790367 11.7154626,129.300527 C9.18154955,135.810688 5.52999986,137.549065 1.12330388,144.240816 C-3.28339211,150.932567 6.51541049,152.650375 9.18154955,152.650375 C21.4072033,152.650375 16.7056145,142.57195 21.852623,141.99825 C24.3441859,141.720534 30.0162284,141.184091 33.2588015,139.999651 C37.3351333,138.510658 35.0639874,132.075275 35.6928768,130.369724 C38.5347038,122.662674 42.8276846,118.793814 43.5280977,121.966888 C44.1362067,124.721797 44.7204794,127.166344 45.280916,129.300527 C47.940236,139.427415 52.2351851,148.208792 58.1657634,155.644658 C96.6023085,156.498182 116.042856,156.244142 116.487406,154.882537 C118.21286,149.597672 118.980083,149.276515 118.980083,147.32352 C118.980083,146.83428 121.965328,149.114287 124.823233,150.932567 C128.407678,153.213092 136.458245,148.797141 137.63309,141.99825 C139.231181,132.750011 132.559695,79.5881917 131.497685,76.0151832 C129.564134,69.5099793 124.418576,66.0091085 111.228911,66.6213296 C108.409063,66.7522177 103.743859,65.873994 97.2332975,63.9866584 C102.935861,70.4693855 103.267111,75.9352057 98.2270467,80.3841192 C93.1869824,84.8330327 89.3856209,93.7457687 86.8229622,107.122327 C81.0861443,96.3200333 77.7681956,87.9082294 76.869116,81.8869154 C76.1148881,76.8357025 69.4654639,76.0358293 66.2443633,72.2513359 C65.4595654,71.3292714 65.1154643,69.4877865 65.2120599,66.7268812 Z" id="Path-35" fill="#DEFF8D"></path>
                        <path d="M92.1047091,70.94173 C96.8195916,70.94173 99.5140787,71.9074775 100.188171,73.8389726 C100.795073,75.5779472 98.1436591,76.6762016 95.3789056,77.921011 C94.4569167,78.3361295 92.8395006,79.2554026 90.5266572,80.6788302 L92.1047091,70.94173 Z" id="Path-40" stroke="#FFFFFF" stroke-width="2"></path>
                        <path d="M105.01345,113.593884 C106.037213,116.845202 108.757021,117.658032 113.172871,116.032373 C117.588722,114.406713 119.196507,110.934516 117.996227,105.615781 C113.003111,98.0582828 110.183046,93.3500635 109.536031,91.491123 C108.774586,89.3034101 110.421634,84.7908031 110.155743,82.9416449 C109.978483,81.7088728 109.448405,80.3488678 108.56551,78.86163 C108.655386,77.9309762 108.44294,77.1208455 107.928173,76.431238 C107.156022,75.3968268 98.6501486,72.0304899 94.5125678,74.7810093 C94.1074316,75.0503297 93.816826,76.7782597 93.9825887,77.0382561 C94.6537611,78.09098 97.055245,75.9374743 99.6129053,77.0382561 C99.9977351,77.2038815 99.6598869,78.1513735 99.6129053,78.4693704 C99.5445593,78.9319735 92.3839067,80.7842993 92.1931498,81.0924867 C91.6199828,82.0184973 92.1119075,83.9920402 92.1931498,85.5687875 C92.2702439,87.0650266 92.8713347,87.6487411 93.3841383,88.7027122 C94.0348784,90.0401857 94.3026325,90.9379239 94.8454402,91.491123 C95.8159974,92.4802602 97.1456186,92.7574868 98.834304,92.3228025 C98.834304,93.3789464 98.834304,94.3014894 98.834304,95.0904315 C98.834304,95.8793736 99.7494591,97.5558203 101.579769,100.119771 L105.01345,113.593884 Z" id="Path-36" fill="#E1B08F"></path>
                        <path d="M91.919375,84.8518731 C98.4769905,82.9304958 94.7874818,83.5815687 103.061117,83.5164465" id="Path-37" stroke-opacity="0.248980978" stroke="#8B572A"></path>
                        <path d="M93.3120928,89.0917676 C96.0975284,89.0471999 98.8829641,89.0026322 101.6684,88.9580645" id="Path-38" stroke-opacity="0.248980978" stroke="#8B572A"></path>
                        <path d="M100.275682,78.0048219 C101.20416,77.9328083 102.132639,77.8607947 103.061117,77.7887811" id="Path-39" stroke-opacity="0.248980978" stroke="#8B572A"></path>
                        <path d="M17.869356,158.952037 C19.8109499,158.323336 24.3113803,150.946216 27.2456287,150.716172 C32.1742997,150.329767 29.3582836,158.508072 32.5830986,155.62862 C37.0409821,151.648155 35.7474389,139.952618 26.2283865,140.087261 C16.709334,140.221904 12.0622227,144.584535 12.054337,150.348846 C12.0464513,156.113156 10.2155846,161.430379 17.869356,158.952037 Z" id="Oval" fill="#E1B08F" transform="translate(23.451594, 149.831256) rotate(-19.000000) translate(-23.451594, -149.831256) "></path>
                        <path d="M72.6172071,66.7021744 C76.0560135,65.7345869 79.349885,65.2971378 82.4988218,65.389827 C85.3240388,65.4729875 88.1333293,65.9858549 90.9266933,66.9284291 L90.9266933,66.928429 C92.3133329,67.3963275 93.1600214,68.7964479 92.9303542,70.2417684 L90.7751264,83.804848 C88.950931,85.4302076 86.0826723,86.2428874 82.1703504,86.2428874 C78.2580285,86.2428874 75.01632,85.4302076 72.4452249,83.804848 L71.1661359,68.797266 C71.0846551,67.8412427 71.6935836,66.9620572 72.6172071,66.7021744 Z" id="Rectangle" fill="#FDFDFD"></path>
                        <path d="M81.5813509,84.8518731 C85.8479994,84.8518731 89.1339394,83.5896388 89.1339394,83.1646673 C89.1339394,82.7396958 85.0966765,82.2027081 81.5813509,82.0870012 C78.0660253,81.9712943 73.8140436,82.4632951 73.8140436,82.8882666 C73.8140436,83.3132382 77.3147025,84.8518731 81.5813509,84.8518731 Z" id="Oval" fill="#D8CCDB"></path>
                    </g>
                </g>
                <g id="notebook" transform="translate(1360.500000, 680.500000) scale(-1, 1) translate(-1360.500000, -680.500000) translate(1332.000000, 669.000000)">
                    <polygon id="Path" fill="#CDCACA" points="28.9042983 1.01454005 56.6604768 8.55738378 56.8804014 11.1501333 28.3804014 3.1479543"></polygon>
                    <path d="M2.22165534,13.9360963 L28.3203215,22.8043101 C28.5501768,22.882414 28.8005952,22.8742367 29.0248654,22.7813036 L54.5729967,12.1946715 C55.0832112,11.9832488 55.3254299,11.3982462 55.1140073,10.8880317 C54.9957075,10.6025453 54.752063,10.3877907 54.4539832,10.3062692 L29.5683872,3.50033501 C29.3821165,3.44939202 29.1850798,3.45347242 29.0010778,3.51208332 L2.23987629,12.0364358 C1.71364349,12.2040589 1.42293284,12.7665402 1.59055588,13.292773 C1.68689659,13.5952233 1.92110863,13.8339718 2.22165534,13.9360963 Z" id="Path-50-Copy-3" fill="#AFA5A5"></path>
                    <path d="M2.47561248,13.2325121 L28.1788244,22.0126125 C28.4130391,22.0926192 28.6686023,22.0829267 28.8960842,21.9854096 L54.38409,11.0591976 C54.8916998,10.8415952 55.1267971,10.2536946 54.9091947,9.74608485 C54.7892253,9.46622737 54.5482859,9.25627569 54.2546473,9.17571999 L29.2264463,2.30957882 C29.0322823,2.2563126 28.8265611,2.26289656 28.6362004,2.32846922 L2.47318365,11.340722 C1.95101031,11.5205926 1.67351913,12.0897117 1.85338975,12.6118851 C1.95390886,12.903697 2.18354339,13.1327426 2.47561248,13.2325121 Z" id="Path-50-Copy-2" fill="#F7ECEC"></path>
                    <path d="M3.28293288,12.3927486 L28.5568997,21.120107 C28.799727,21.2039577 29.0655104,21.1911397 29.2991417,21.0843108 L54.6859991,9.47605891 C55.1882668,9.2463948 55.4092557,8.65304683 55.1795916,8.15077913 C55.0568407,7.88232721 54.8217561,7.68182288 54.5372991,7.60296607 L29.4484998,0.647881793 C29.2419311,0.590617093 29.0224282,0.601245595 28.8223585,0.678200039 L3.25033359,10.5141779 C2.73486499,10.7124468 2.47772384,11.2910454 2.67599276,11.806514 C2.78191498,12.0818954 3.00404217,12.2964448 3.28293288,12.3927486 Z" id="Path-50-Copy-4" fill="#8F6767"></path>
                    <path d="M7.59073069,13.7976092 L23.4269103,19.366753 C23.6733757,19.453428 23.943975,19.4402052 24.1808157,19.3299135 L40.0331283,11.9478272 L24.2469794,7.49098424 C24.0370972,7.43172901 23.8135978,7.44271029 23.6105354,7.52225489 L7.59073069,13.7976092 Z" id="Path-50-Copy-5" fill="#3F3B3B" opacity="0.515950521"></path>
                    <g id="Group" transform="translate(44.501737, 4.084776)">
                        <ellipse id="Oval" stroke="#191212" cx="0.367788462" cy="2.98870056" rx="1" ry="1"></ellipse>
                        <path d="M0.311784785,3.11461429 C1.11242102,0.482724748 4.46054032,-0.921154223 5.83961343,1.25910712 C5.96209307,1.4527427 6.36403127,2.37600068 6.32347093,2.53744223" id="Path-61" stroke="#4B3535" stroke-width="2"></path>
                    </g>
                    <g id="Group-Copy" transform="translate(36.936491, 1.778172)">
                        <ellipse id="Oval" stroke="#191212" cx="0.367788462" cy="2.98870056" rx="1" ry="1"></ellipse>
                        <path d="M0.311784785,3.11461429 C1.10040189,0.52223461 4.21791366,-0.792369974 5.79390807,1.24135232 C6.12980769,1.67480979 6.38797882,2.46247241 6.31597713,2.78854335" id="Path-61" stroke="#4B3535" stroke-width="2"></path>
                    </g>
                    <g id="Group-Copy-2" transform="translate(29.800291, 0.185447)">
                        <ellipse id="Oval" stroke="#191212" cx="0.367788462" cy="2.2220339" rx="1" ry="1"></ellipse>
                        <path d="M0.311784785,2.33535625 C2.422579,-1.87118644 6.35473268,0.770947309 6.12289305,2.29609743" id="Path-61" stroke="#4B3535" stroke-width="2"></path>
                    </g>
                </g>
            </g>
        </g>
    </g>
</svg>